<svg id="Layer_1" enable-background="new 0 0 512.004 512.004" height="512" viewBox="0 0 512.004 512.004" width="512" xmlns="http://www.w3.org/2000/svg"><path d="m499.65 110.241-160.647-28.786v-42.449c0-8.284-6.716-15-15-15h-90.351l-31.165-21.374c-2.498-1.713-5.456-2.63-8.485-2.63l-68 .004c-7.486 0-13.827 5.521-14.856 12.937l-3.203 23.063h-50.94c-3.979 0-7.793 1.581-10.606 4.394s-4.394 6.628-4.394 10.606v47.343l-37.064 33.534c-3.143 2.844-4.937 6.884-4.937 11.123l-.003 76c0 3.978 1.58 7.793 4.393 10.607 2.813 2.813 6.628 4.394 10.607 4.394h96.319l79.596 70.447 26.796 86.64-35.622 60.282c-2.202 3.727-2.687 8.222-1.33 12.333 1.356 4.11 4.423 7.434 8.41 9.117l90 37.995c1.887.796 3.868 1.182 5.83 1.182 4.22 0 8.351-1.782 11.262-5.087l70-79.496c2.412-2.739 3.743-6.264 3.743-9.913v-26.498l54-.001c7.856 0 14.382-6.063 14.959-13.897l6.555-88.958 61.483-54.964c3.183-2.846 5.003-6.913 5.003-11.183l.001-97c0-7.264-5.205-13.483-12.354-14.765zm-17.647 105.055-60.997 54.527c-2.897 2.59-4.677 6.205-4.962 10.081l-5.976 81.103-55.065.001c-8.284 0-15 6.716-15 15v35.834l-59.119 67.138-64.237-27.119 30.27-51.225c2.152-3.642 2.666-8.022 1.416-12.063l-30-97c-.812-2.626-2.33-4.979-4.389-6.8l-87-77c-2.743-2.427-6.279-3.768-9.941-3.768h-87.003l.002-54.343 37.065-33.534c3.143-2.844 4.937-6.884 4.937-11.123v-39h49c7.487 0 13.827-5.521 14.857-12.937l3.203-23.064 50.291-.003 31.165 21.374c2.498 1.713 5.455 2.63 8.484 2.63h80v40c0 7.264 5.205 13.483 12.354 14.765l160.646 28.786z"/></svg>